<mxfile host="drawio-plugin" modified="2022-04-22T17:35:10.739Z" agent="5.0 (Windows NT 6.2; Win64; x64) AppleWebKit/537.36 (KHTML, like Gecko) Chrome/89.0.4389.114 Safari/537.36" etag="QJdECfHmtUUFQN1bU7X9" version="15.5.4" type="embed"><diagram id="C5RBs43oDa-KdzZeNtuy" name="Page-1"><mxGraphModel dx="2206" dy="749" grid="1" gridSize="10" guides="1" tooltips="1" connect="1" arrows="1" fold="1" page="1" pageScale="1" pageWidth="827" pageHeight="1169" math="0" shadow="0"><root><mxCell id="WIyWlLk6GJQsqaUBKTNV-0"/><mxCell id="WIyWlLk6GJQsqaUBKTNV-1" parent="WIyWlLk6GJQsqaUBKTNV-0"/><mxCell id="JbvNO5WF17-5NGWWTB2i-3" style="edgeStyle=orthogonalEdgeStyle;rounded=0;orthogonalLoop=1;jettySize=auto;html=1;entryX=0.5;entryY=0;entryDx=0;entryDy=0;dashed=1;endArrow=open;endFill=0;" parent="WIyWlLk6GJQsqaUBKTNV-1" source="JbvNO5WF17-5NGWWTB2i-0" target="JbvNO5WF17-5NGWWTB2i-1" edge="1"><mxGeometry relative="1" as="geometry"/></mxCell><mxCell id="JbvNO5WF17-5NGWWTB2i-10" style="edgeStyle=orthogonalEdgeStyle;rounded=0;orthogonalLoop=1;jettySize=auto;html=1;entryX=0.5;entryY=0;entryDx=0;entryDy=0;dashed=1;endArrow=open;endFill=0;" parent="WIyWlLk6GJQsqaUBKTNV-1" source="JbvNO5WF17-5NGWWTB2i-0" target="JbvNO5WF17-5NGWWTB2i-8" edge="1"><mxGeometry relative="1" as="geometry"/></mxCell><mxCell id="JbvNO5WF17-5NGWWTB2i-15" style="edgeStyle=orthogonalEdgeStyle;rounded=0;orthogonalLoop=1;jettySize=auto;html=1;entryX=0.5;entryY=1;entryDx=0;entryDy=0;dashed=1;endArrow=open;endFill=0;" parent="WIyWlLk6GJQsqaUBKTNV-1" source="JbvNO5WF17-5NGWWTB2i-0" target="JbvNO5WF17-5NGWWTB2i-14" edge="1"><mxGeometry relative="1" as="geometry"/></mxCell><mxCell id="JbvNO5WF17-5NGWWTB2i-18" style="edgeStyle=orthogonalEdgeStyle;rounded=0;orthogonalLoop=1;jettySize=auto;html=1;dashed=1;endArrow=open;endFill=0;entryX=0.744;entryY=1.039;entryDx=0;entryDy=0;entryPerimeter=0;" parent="WIyWlLk6GJQsqaUBKTNV-1" source="JbvNO5WF17-5NGWWTB2i-0" target="JbvNO5WF17-5NGWWTB2i-16" edge="1"><mxGeometry relative="1" as="geometry"><mxPoint x="240" y="260" as="targetPoint"/><Array as="points"><mxPoint x="249" y="240"/></Array></mxGeometry></mxCell><mxCell id="3" style="edgeStyle=orthogonalEdgeStyle;rounded=0;orthogonalLoop=1;jettySize=auto;html=1;endArrow=open;endFill=0;endSize=7;dashed=1;" edge="1" parent="WIyWlLk6GJQsqaUBKTNV-1" source="JbvNO5WF17-5NGWWTB2i-0" target="2"><mxGeometry relative="1" as="geometry"/></mxCell><mxCell id="11" style="edgeStyle=orthogonalEdgeStyle;rounded=0;orthogonalLoop=1;jettySize=auto;html=1;entryX=1;entryY=0.5;entryDx=0;entryDy=0;dashed=1;endArrow=open;endFill=0;endSize=7;" edge="1" parent="WIyWlLk6GJQsqaUBKTNV-1" source="JbvNO5WF17-5NGWWTB2i-0" target="10"><mxGeometry relative="1" as="geometry"/></mxCell><mxCell id="JbvNO5WF17-5NGWWTB2i-0" value="&lt;div&gt;&amp;lt;&amp;lt;control&amp;gt;&amp;gt;&lt;/div&gt;&lt;div&gt;Registrierung&lt;br&gt;&lt;/div&gt;" style="whiteSpace=wrap;html=1;aspect=fixed;" parent="WIyWlLk6GJQsqaUBKTNV-1" vertex="1"><mxGeometry x="360" y="220" width="80" height="80" as="geometry"/></mxCell><mxCell id="JbvNO5WF17-5NGWWTB2i-1" value="&lt;div&gt;&amp;lt;&amp;lt;entity&amp;gt;&amp;gt;&lt;/div&gt;&lt;div&gt;user&lt;br&gt;&lt;/div&gt;" style="whiteSpace=wrap;html=1;aspect=fixed;" parent="WIyWlLk6GJQsqaUBKTNV-1" vertex="1"><mxGeometry x="360" y="360" width="80" height="80" as="geometry"/></mxCell><mxCell id="JbvNO5WF17-5NGWWTB2i-7" style="edgeStyle=orthogonalEdgeStyle;rounded=0;orthogonalLoop=1;jettySize=auto;html=1;endArrow=none;endFill=0;" parent="WIyWlLk6GJQsqaUBKTNV-1" source="JbvNO5WF17-5NGWWTB2i-4" edge="1"><mxGeometry relative="1" as="geometry"><mxPoint x="400" y="460" as="targetPoint"/><Array as="points"><mxPoint x="270" y="480"/><mxPoint x="400" y="480"/></Array></mxGeometry></mxCell><mxCell id="JbvNO5WF17-5NGWWTB2i-4" value="&lt;div&gt;&amp;lt;&amp;lt;entity&amp;gt;&amp;gt;&lt;/div&gt;&lt;div&gt;student&lt;br&gt;&lt;/div&gt;" style="whiteSpace=wrap;html=1;" parent="WIyWlLk6GJQsqaUBKTNV-1" vertex="1"><mxGeometry x="210" y="520" width="120" height="60" as="geometry"/></mxCell><mxCell id="JbvNO5WF17-5NGWWTB2i-6" style="edgeStyle=orthogonalEdgeStyle;rounded=0;orthogonalLoop=1;jettySize=auto;html=1;endArrow=block;endFill=0;endSize=10;" parent="WIyWlLk6GJQsqaUBKTNV-1" source="JbvNO5WF17-5NGWWTB2i-5" edge="1"><mxGeometry relative="1" as="geometry"><Array as="points"><mxPoint x="540" y="480"/><mxPoint x="400" y="480"/></Array><mxPoint x="400" y="440" as="targetPoint"/></mxGeometry></mxCell><mxCell id="JbvNO5WF17-5NGWWTB2i-5" value="&lt;div&gt;&amp;lt;&amp;lt;entity&amp;gt;&amp;gt;&lt;/div&gt;&lt;span class=&quot;module__title__link&quot;&gt;organization&lt;/span&gt;" style="whiteSpace=wrap;html=1;" parent="WIyWlLk6GJQsqaUBKTNV-1" vertex="1"><mxGeometry x="480" y="520" width="120" height="60" as="geometry"/></mxCell><mxCell id="JbvNO5WF17-5NGWWTB2i-9" style="edgeStyle=orthogonalEdgeStyle;rounded=0;orthogonalLoop=1;jettySize=auto;html=1;dashed=1;endArrow=open;endFill=0;" parent="WIyWlLk6GJQsqaUBKTNV-1" source="JbvNO5WF17-5NGWWTB2i-8" edge="1"><mxGeometry relative="1" as="geometry"><mxPoint x="440" y="290" as="targetPoint"/><Array as="points"><mxPoint x="460" y="390"/><mxPoint x="460" y="290"/><mxPoint x="441" y="290"/></Array></mxGeometry></mxCell><mxCell id="JbvNO5WF17-5NGWWTB2i-13" style="edgeStyle=orthogonalEdgeStyle;rounded=0;orthogonalLoop=1;jettySize=auto;html=1;dashed=1;endArrow=open;endFill=0;entryX=0.75;entryY=1;entryDx=0;entryDy=0;" parent="WIyWlLk6GJQsqaUBKTNV-1" source="JbvNO5WF17-5NGWWTB2i-8" target="JbvNO5WF17-5NGWWTB2i-11" edge="1"><mxGeometry relative="1" as="geometry"><mxPoint x="680" y="270" as="targetPoint"/><Array as="points"><mxPoint x="650" y="380"/></Array></mxGeometry></mxCell><mxCell id="JbvNO5WF17-5NGWWTB2i-8" value="&lt;div&gt;&amp;lt;&amp;lt;control&amp;gt;&amp;gt;&lt;/div&gt;&lt;div&gt;Angaben&lt;br&gt;&lt;/div&gt;pruefen" style="whiteSpace=wrap;html=1;" parent="WIyWlLk6GJQsqaUBKTNV-1" vertex="1"><mxGeometry x="470" y="360" width="120" height="60" as="geometry"/></mxCell><mxCell id="JbvNO5WF17-5NGWWTB2i-12" style="edgeStyle=orthogonalEdgeStyle;rounded=0;orthogonalLoop=1;jettySize=auto;html=1;entryX=0.869;entryY=-0.006;entryDx=0;entryDy=0;entryPerimeter=0;dashed=1;endArrow=open;endFill=0;" parent="WIyWlLk6GJQsqaUBKTNV-1" source="JbvNO5WF17-5NGWWTB2i-11" target="JbvNO5WF17-5NGWWTB2i-8" edge="1"><mxGeometry relative="1" as="geometry"/></mxCell><mxCell id="JbvNO5WF17-5NGWWTB2i-38" style="edgeStyle=orthogonalEdgeStyle;rounded=0;orthogonalLoop=1;jettySize=auto;html=1;entryX=1;entryY=0.25;entryDx=0;entryDy=0;dashed=1;endArrow=open;endFill=0;" parent="WIyWlLk6GJQsqaUBKTNV-1" source="JbvNO5WF17-5NGWWTB2i-11" target="JbvNO5WF17-5NGWWTB2i-36" edge="1"><mxGeometry relative="1" as="geometry"><Array as="points"><mxPoint x="670" y="685"/></Array></mxGeometry></mxCell><mxCell id="JbvNO5WF17-5NGWWTB2i-11" value="&lt;div&gt;&amp;lt;&amp;lt;boundary&amp;gt;&amp;gt;&lt;/div&gt;&lt;div&gt;Datenbank&lt;br&gt;&lt;/div&gt;" style="whiteSpace=wrap;html=1;" parent="WIyWlLk6GJQsqaUBKTNV-1" vertex="1"><mxGeometry x="560" y="210" width="120" height="60" as="geometry"/></mxCell><mxCell id="JbvNO5WF17-5NGWWTB2i-14" value="&lt;div&gt;&amp;lt;&amp;lt;dto&amp;gt;&amp;gt;&lt;/div&gt;&lt;div&gt;UserDTO&lt;br&gt;&lt;/div&gt;" style="whiteSpace=wrap;html=1;" parent="WIyWlLk6GJQsqaUBKTNV-1" vertex="1"><mxGeometry x="380" y="120" width="120" height="60" as="geometry"/></mxCell><mxCell id="JbvNO5WF17-5NGWWTB2i-17" style="edgeStyle=orthogonalEdgeStyle;rounded=0;orthogonalLoop=1;jettySize=auto;html=1;entryX=0;entryY=0.5;entryDx=0;entryDy=0;dashed=1;endArrow=open;endFill=0;" parent="WIyWlLk6GJQsqaUBKTNV-1" source="JbvNO5WF17-5NGWWTB2i-16" target="JbvNO5WF17-5NGWWTB2i-14" edge="1"><mxGeometry relative="1" as="geometry"/></mxCell><mxCell id="JbvNO5WF17-5NGWWTB2i-19" style="edgeStyle=orthogonalEdgeStyle;rounded=0;orthogonalLoop=1;jettySize=auto;html=1;entryX=-0.017;entryY=0.617;entryDx=0;entryDy=0;entryPerimeter=0;dashed=1;endArrow=open;endFill=0;" parent="WIyWlLk6GJQsqaUBKTNV-1" source="JbvNO5WF17-5NGWWTB2i-16" target="JbvNO5WF17-5NGWWTB2i-0" edge="1"><mxGeometry relative="1" as="geometry"><Array as="points"><mxPoint x="220" y="270"/><mxPoint x="359" y="270"/></Array></mxGeometry></mxCell><mxCell id="JbvNO5WF17-5NGWWTB2i-16" value="&lt;div&gt;&amp;lt;&amp;lt;boundary&amp;gt;&amp;gt;&lt;br&gt;&lt;/div&gt;&lt;div&gt;Registrierungsseite&lt;/div&gt;" style="whiteSpace=wrap;html=1;" parent="WIyWlLk6GJQsqaUBKTNV-1" vertex="1"><mxGeometry x="160" y="120" width="120" height="60" as="geometry"/></mxCell><mxCell id="JbvNO5WF17-5NGWWTB2i-24" style="edgeStyle=orthogonalEdgeStyle;rounded=0;orthogonalLoop=1;jettySize=auto;html=1;entryX=0;entryY=0.5;entryDx=0;entryDy=0;dashed=1;endArrow=open;endFill=0;" parent="WIyWlLk6GJQsqaUBKTNV-1" source="JbvNO5WF17-5NGWWTB2i-23" target="JbvNO5WF17-5NGWWTB2i-1" edge="1"><mxGeometry relative="1" as="geometry"><Array as="points"><mxPoint x="190" y="650"/><mxPoint x="190" y="400"/></Array></mxGeometry></mxCell><mxCell id="JbvNO5WF17-5NGWWTB2i-34" style="edgeStyle=orthogonalEdgeStyle;rounded=0;orthogonalLoop=1;jettySize=auto;html=1;entryX=1;entryY=0.833;entryDx=0;entryDy=0;entryPerimeter=0;dashed=1;endArrow=open;endFill=0;" parent="WIyWlLk6GJQsqaUBKTNV-1" source="JbvNO5WF17-5NGWWTB2i-23" target="JbvNO5WF17-5NGWWTB2i-25" edge="1"><mxGeometry relative="1" as="geometry"><Array as="points"><mxPoint x="390" y="720"/></Array></mxGeometry></mxCell><mxCell id="JbvNO5WF17-5NGWWTB2i-41" style="edgeStyle=orthogonalEdgeStyle;rounded=0;orthogonalLoop=1;jettySize=auto;html=1;dashed=1;endArrow=open;endFill=0;entryX=0;entryY=0.5;entryDx=0;entryDy=0;" parent="WIyWlLk6GJQsqaUBKTNV-1" source="JbvNO5WF17-5NGWWTB2i-23" target="JbvNO5WF17-5NGWWTB2i-36" edge="1"><mxGeometry relative="1" as="geometry"><mxPoint x="430" y="700" as="targetPoint"/><Array as="points"><mxPoint x="400" y="700"/></Array></mxGeometry></mxCell><mxCell id="JbvNO5WF17-5NGWWTB2i-23" value="&lt;div&gt;&amp;lt;&amp;lt;control&amp;gt;&amp;gt;&lt;/div&gt;&lt;div&gt;Login&lt;br&gt;&lt;/div&gt;" style="whiteSpace=wrap;html=1;" parent="WIyWlLk6GJQsqaUBKTNV-1" vertex="1"><mxGeometry x="330" y="620" width="120" height="60" as="geometry"/></mxCell><mxCell id="JbvNO5WF17-5NGWWTB2i-35" style="edgeStyle=orthogonalEdgeStyle;rounded=0;orthogonalLoop=1;jettySize=auto;html=1;entryX=0.25;entryY=1;entryDx=0;entryDy=0;dashed=1;endArrow=open;endFill=0;" parent="WIyWlLk6GJQsqaUBKTNV-1" source="JbvNO5WF17-5NGWWTB2i-25" target="JbvNO5WF17-5NGWWTB2i-23" edge="1"><mxGeometry relative="1" as="geometry"/></mxCell><mxCell id="JbvNO5WF17-5NGWWTB2i-25" value="&lt;div&gt;&amp;lt;&amp;lt;boundary&amp;gt;&amp;gt;&lt;/div&gt;&lt;div&gt;Loginseite&lt;br&gt;&lt;/div&gt;" style="whiteSpace=wrap;html=1;" parent="WIyWlLk6GJQsqaUBKTNV-1" vertex="1"><mxGeometry x="180" y="670" width="120" height="60" as="geometry"/></mxCell><mxCell id="JbvNO5WF17-5NGWWTB2i-37" style="edgeStyle=orthogonalEdgeStyle;rounded=0;orthogonalLoop=1;jettySize=auto;html=1;entryX=1;entryY=0.5;entryDx=0;entryDy=0;dashed=1;endArrow=open;endFill=0;" parent="WIyWlLk6GJQsqaUBKTNV-1" source="JbvNO5WF17-5NGWWTB2i-36" target="JbvNO5WF17-5NGWWTB2i-11" edge="1"><mxGeometry relative="1" as="geometry"><Array as="points"><mxPoint x="700" y="700"/><mxPoint x="700" y="240"/></Array></mxGeometry></mxCell><mxCell id="JbvNO5WF17-5NGWWTB2i-40" style="edgeStyle=orthogonalEdgeStyle;rounded=0;orthogonalLoop=1;jettySize=auto;html=1;entryX=1;entryY=0.333;entryDx=0;entryDy=0;entryPerimeter=0;dashed=1;endArrow=open;endFill=0;" parent="WIyWlLk6GJQsqaUBKTNV-1" source="JbvNO5WF17-5NGWWTB2i-36" target="JbvNO5WF17-5NGWWTB2i-23" edge="1"><mxGeometry relative="1" as="geometry"><Array as="points"><mxPoint x="540" y="640"/></Array></mxGeometry></mxCell><mxCell id="JbvNO5WF17-5NGWWTB2i-36" value="&lt;div&gt;&amp;lt;&amp;lt;control&amp;gt;&amp;gt;&lt;/div&gt;&lt;div&gt;zugriff_pruefen&lt;br&gt;&lt;/div&gt;" style="whiteSpace=wrap;html=1;" parent="WIyWlLk6GJQsqaUBKTNV-1" vertex="1"><mxGeometry x="480" y="670" width="120" height="60" as="geometry"/></mxCell><mxCell id="6" style="edgeStyle=orthogonalEdgeStyle;rounded=0;orthogonalLoop=1;jettySize=auto;html=1;endArrow=none;endFill=0;endSize=7;entryX=0;entryY=0.5;entryDx=0;entryDy=0;" edge="1" parent="WIyWlLk6GJQsqaUBKTNV-1" source="0" target="JbvNO5WF17-5NGWWTB2i-5"><mxGeometry relative="1" as="geometry"><Array as="points"><mxPoint x="255" y="460"/><mxPoint x="255" y="490"/><mxPoint x="450" y="490"/><mxPoint x="450" y="550"/></Array></mxGeometry></mxCell><mxCell id="0" value="&lt;div&gt;&amp;lt;&amp;lt;entity&amp;gt;&amp;gt;&lt;/div&gt;&lt;div&gt;profil&lt;br&gt;&lt;/div&gt;" style="whiteSpace=wrap;html=1;" vertex="1" parent="WIyWlLk6GJQsqaUBKTNV-1"><mxGeometry x="30" y="430" width="120" height="60" as="geometry"/></mxCell><mxCell id="7" style="edgeStyle=orthogonalEdgeStyle;rounded=0;orthogonalLoop=1;jettySize=auto;html=1;entryX=0.5;entryY=0;entryDx=0;entryDy=0;endArrow=open;endFill=0;endSize=7;dashed=1;" edge="1" parent="WIyWlLk6GJQsqaUBKTNV-1" source="2" target="0"><mxGeometry relative="1" as="geometry"/></mxCell><mxCell id="14" style="edgeStyle=orthogonalEdgeStyle;rounded=0;orthogonalLoop=1;jettySize=auto;html=1;dashed=1;endArrow=open;endFill=0;endSize=7;startArrow=open;startFill=0;" edge="1" parent="WIyWlLk6GJQsqaUBKTNV-1" source="2" target="13"><mxGeometry relative="1" as="geometry"><mxPoint x="70" y="200" as="targetPoint"/><Array as="points"><mxPoint x="180" y="210"/><mxPoint x="50" y="210"/></Array></mxGeometry></mxCell><mxCell id="18" style="edgeStyle=orthogonalEdgeStyle;rounded=0;orthogonalLoop=1;jettySize=auto;html=1;dashed=1;startArrow=none;startFill=0;endArrow=open;endFill=0;endSize=7;" edge="1" parent="WIyWlLk6GJQsqaUBKTNV-1" source="2" target="16"><mxGeometry relative="1" as="geometry"><Array as="points"><mxPoint x="-160" y="320"/></Array></mxGeometry></mxCell><mxCell id="2" value="&lt;div&gt;&amp;lt;&amp;lt;control&amp;gt;&amp;gt;&lt;/div&gt;&lt;div&gt;ProfilAnlegen&lt;/div&gt;" style="whiteSpace=wrap;html=1;" vertex="1" parent="WIyWlLk6GJQsqaUBKTNV-1"><mxGeometry x="170" y="300" width="120" height="60" as="geometry"/></mxCell><mxCell id="28" style="edgeStyle=orthogonalEdgeStyle;rounded=0;orthogonalLoop=1;jettySize=auto;html=1;entryX=0.424;entryY=1.017;entryDx=0;entryDy=0;entryPerimeter=0;startArrow=none;startFill=0;endArrow=none;endFill=0;endSize=7;" edge="1" parent="WIyWlLk6GJQsqaUBKTNV-1" source="8" target="0"><mxGeometry relative="1" as="geometry"><Array as="points"><mxPoint x="-90" y="510"/><mxPoint x="81" y="510"/></Array></mxGeometry></mxCell><mxCell id="8" value="&lt;div&gt;&amp;lt;&amp;lt;entity&amp;gt;&amp;gt;&lt;/div&gt;&lt;div&gt;Stellenanzeige&lt;br&gt;&lt;/div&gt;" style="whiteSpace=wrap;html=1;" vertex="1" parent="WIyWlLk6GJQsqaUBKTNV-1"><mxGeometry x="-140" y="380" width="120" height="60" as="geometry"/></mxCell><mxCell id="12" style="edgeStyle=orthogonalEdgeStyle;rounded=0;orthogonalLoop=1;jettySize=auto;html=1;entryX=0.5;entryY=0;entryDx=0;entryDy=0;dashed=1;endArrow=open;endFill=0;endSize=7;" edge="1" parent="WIyWlLk6GJQsqaUBKTNV-1" source="10" target="8"><mxGeometry relative="1" as="geometry"/></mxCell><mxCell id="25" style="edgeStyle=orthogonalEdgeStyle;rounded=0;orthogonalLoop=1;jettySize=auto;html=1;entryX=1;entryY=0.5;entryDx=0;entryDy=0;dashed=1;startArrow=none;startFill=0;endArrow=open;endFill=0;endSize=7;" edge="1" parent="WIyWlLk6GJQsqaUBKTNV-1" source="10" target="24"><mxGeometry relative="1" as="geometry"/></mxCell><mxCell id="27" style="edgeStyle=orthogonalEdgeStyle;rounded=0;orthogonalLoop=1;jettySize=auto;html=1;dashed=1;startArrow=none;startFill=0;endArrow=open;endFill=0;endSize=7;" edge="1" parent="WIyWlLk6GJQsqaUBKTNV-1" source="10" target="22"><mxGeometry relative="1" as="geometry"><Array as="points"><mxPoint x="-115" y="290"/><mxPoint x="-115" y="360"/></Array></mxGeometry></mxCell><mxCell id="10" value="&lt;div&gt;&amp;lt;&amp;lt;control&amp;gt;&amp;gt;&lt;/div&gt;&lt;div&gt;StellenanzeigeAnlegen&lt;/div&gt;" style="whiteSpace=wrap;html=1;" vertex="1" parent="WIyWlLk6GJQsqaUBKTNV-1"><mxGeometry x="-30" y="230" width="150" height="60" as="geometry"/></mxCell><mxCell id="15" style="edgeStyle=orthogonalEdgeStyle;rounded=0;orthogonalLoop=1;jettySize=auto;html=1;dashed=1;startArrow=none;startFill=0;endArrow=open;endFill=0;endSize=7;entryX=1;entryY=0.5;entryDx=0;entryDy=0;" edge="1" parent="WIyWlLk6GJQsqaUBKTNV-1" source="13" target="16"><mxGeometry relative="1" as="geometry"><mxPoint x="-90.00000000000023" y="150" as="targetPoint"/></mxGeometry></mxCell><mxCell id="13" value="&lt;div&gt;&amp;lt;&amp;lt;boundary&amp;gt;&amp;gt;&lt;br&gt;&lt;/div&gt;&lt;div&gt;Profilseite&lt;/div&gt;" style="whiteSpace=wrap;html=1;" vertex="1" parent="WIyWlLk6GJQsqaUBKTNV-1"><mxGeometry x="-20" y="120" width="120" height="60" as="geometry"/></mxCell><mxCell id="16" value="&amp;lt;&amp;lt;dto&amp;gt;&amp;gt;&lt;br&gt;Profilangaben" style="whiteSpace=wrap;html=1;" vertex="1" parent="WIyWlLk6GJQsqaUBKTNV-1"><mxGeometry x="-220" y="120" width="120" height="60" as="geometry"/></mxCell><mxCell id="20" value="1" style="text;html=1;align=center;verticalAlign=middle;resizable=0;points=[];autosize=1;strokeColor=none;fillColor=none;" vertex="1" parent="WIyWlLk6GJQsqaUBKTNV-1"><mxGeometry x="160" y="440" width="20" height="20" as="geometry"/></mxCell><mxCell id="21" value="1" style="text;html=1;align=center;verticalAlign=middle;resizable=0;points=[];autosize=1;strokeColor=none;fillColor=none;" vertex="1" parent="WIyWlLk6GJQsqaUBKTNV-1"><mxGeometry x="460" y="530" width="20" height="20" as="geometry"/></mxCell><mxCell id="22" value="&amp;lt;&amp;lt;dto&amp;gt;&amp;gt;&lt;br&gt;StellenAngaben" style="whiteSpace=wrap;html=1;" vertex="1" parent="WIyWlLk6GJQsqaUBKTNV-1"><mxGeometry x="-320" y="340" width="120" height="60" as="geometry"/></mxCell><mxCell id="26" style="edgeStyle=orthogonalEdgeStyle;rounded=0;orthogonalLoop=1;jettySize=auto;html=1;entryX=0.583;entryY=0;entryDx=0;entryDy=0;entryPerimeter=0;dashed=1;startArrow=none;startFill=0;endArrow=open;endFill=0;endSize=7;" edge="1" parent="WIyWlLk6GJQsqaUBKTNV-1" source="24" target="22"><mxGeometry relative="1" as="geometry"/></mxCell><mxCell id="24" value="&lt;div&gt;&amp;lt;&amp;lt;boundary&amp;gt;&amp;gt;&lt;br&gt;&lt;/div&gt;&lt;div&gt;StellenSeite&lt;/div&gt;" style="whiteSpace=wrap;html=1;" vertex="1" parent="WIyWlLk6GJQsqaUBKTNV-1"><mxGeometry x="-310" y="230" width="120" height="60" as="geometry"/></mxCell><mxCell id="29" value="0...1" style="text;html=1;align=center;verticalAlign=middle;resizable=0;points=[];autosize=1;strokeColor=none;fillColor=none;" vertex="1" parent="WIyWlLk6GJQsqaUBKTNV-1"><mxGeometry x="80" y="490" width="40" height="20" as="geometry"/></mxCell><mxCell id="30" value="*" style="text;html=1;align=center;verticalAlign=middle;resizable=0;points=[];autosize=1;strokeColor=none;fillColor=none;" vertex="1" parent="WIyWlLk6GJQsqaUBKTNV-1"><mxGeometry x="-120" y="440" width="20" height="20" as="geometry"/></mxCell></root></mxGraphModel></diagram></mxfile>